<svg xmlns="http://www.w3.org/2000/svg" viewBox="0 0 640 400" width="640" height="400" role="img" aria-labelledby="t"><title id="t">Journeys by line, in thousands</title><rect width="640" height="400" fill="#ffffff"/><text x="24" y="32" font-family="system-ui, -apple-system, 'Segoe UI', Roboto, 'Helvetica Neue', Arial, sans-serif" font-size="18" font-weight="600" fill="#1f2937">Journeys by line, in thousands</text><line x1="64" y1="340.0" x2="616" y2="340.0" stroke="#e5e7eb"/><text x="56.0" y="344.0" font-family="system-ui, -apple-system, 'Segoe UI', Roboto, 'Helvetica Neue', Arial, sans-serif" font-size="11" fill="#6b7280" text-anchor="end">0</text><line x1="64" y1="284.8" x2="616" y2="284.8" stroke="#e5e7eb"/><text x="56.0" y="288.8" font-family="system-ui, -apple-system, 'Segoe UI', Roboto, 'Helvetica Neue', Arial, sans-serif" font-size="11" fill="#6b7280" text-anchor="end">20</text><line x1="64" y1="229.6" x2="616" y2="229.6" stroke="#e5e7eb"/><text x="56.0" y="233.6" font-family="system-ui, -apple-system, 'Segoe UI', Roboto, 'Helvetica Neue', Arial, sans-serif" font-size="11" fill="#6b7280" text-anchor="end">40</text><line x1="64" y1="174.4" x2="616" y2="174.4" stroke="#e5e7eb"/><text x="56.0" y="178.4" font-family="system-ui, -apple-system, 'Segoe UI', Roboto, 'Helvetica Neue', Arial, sans-serif" font-size="11" fill="#6b7280" text-anchor="end">60</text><line x1="64" y1="119.2" x2="616" y2="119.2" stroke="#e5e7eb"/><text x="56.0" y="123.2" font-family="system-ui, -apple-system, 'Segoe UI', Roboto, 'Helvetica Neue', Arial, sans-serif" font-size="11" fill="#6b7280" text-anchor="end">80</text><line x1="64" y1="64.0" x2="616" y2="64.0" stroke="#e5e7eb"/><text x="56.0" y="68.0" font-family="system-ui, -apple-system, 'Segoe UI', Roboto, 'Helvetica Neue', Arial, sans-serif" font-size="11" fill="#6b7280" text-anchor="end">100</text><rect x="80.5" y="270.0" width="36" height="70.0" fill="#2563eb"/><rect x="80.5" y="203.8" width="36" height="66.2" fill="#f59e0b"/><rect x="80.5" y="168.9" width="36" height="35.0" fill="#10b981"/><text x="98.5" y="360.0" font-family="system-ui, -apple-system, 'Segoe UI', Roboto, 'Helvetica Neue', Arial, sans-serif" font-size="11" fill="#6b7280" text-anchor="middle">2018</text><rect x="149.5" y="268.5" width="36" height="71.5" fill="#2563eb"/><rect x="149.5" y="221.5" width="36" height="47.0" fill="#f59e0b"/><rect x="149.5" y="189.9" width="36" height="31.6" fill="#10b981"/><text x="167.5" y="360.0" font-family="system-ui, -apple-system, 'Segoe UI', Roboto, 'Helvetica Neue', Arial, sans-serif" font-size="11" fill="#6b7280" text-anchor="middle">2019</text><rect x="218.5" y="268.0" width="36" height="72.0" fill="#2563eb"/><rect x="218.5" y="200.7" width="36" height="67.3" fill="#f59e0b"/><rect x="218.5" y="163.1" width="36" height="37.6" fill="#10b981"/><text x="236.5" y="360.0" font-family="system-ui, -apple-system, 'Segoe UI', Roboto, 'Helvetica Neue', Arial, sans-serif" font-size="11" fill="#6b7280" text-anchor="middle">2020</text><rect x="287.5" y="277.8" width="36" height="62.2" fill="#2563eb"/><rect x="287.5" y="240.6" width="36" height="37.3" fill="#f59e0b"/><rect x="287.5" y="187.7" width="36" height="52.8" fill="#10b981"/><text x="305.5" y="360.0" font-family="system-ui, -apple-system, 'Segoe UI', Roboto, 'Helvetica Neue', Arial, sans-serif" font-size="11" fill="#6b7280" text-anchor="middle">2021</text><rect x="356.5" y="266.1" width="36" height="73.9" fill="#2563eb"/><rect x="356.5" y="238.1" width="36" height="28.0" fill="#f59e0b"/><rect x="356.5" y="194.0" width="36" height="44.1" fill="#10b981"/><text x="374.5" y="360.0" font-family="system-ui, -apple-system, 'Segoe UI', Roboto, 'Helvetica Neue', Arial, sans-serif" font-size="11" fill="#6b7280" text-anchor="middle">2022</text><rect x="425.5" y="282.9" width="36" height="57.1" fill="#2563eb"/><rect x="425.5" y="238.6" width="36" height="44.3" fill="#f59e0b"/><rect x="425.5" y="196.6" width="36" height="42.0" fill="#10b981"/><text x="443.5" y="360.0" font-family="system-ui, -apple-system, 'Segoe UI', Roboto, 'Helvetica Neue', Arial, sans-serif" font-size="11" fill="#6b7280" text-anchor="middle">2023</text><rect x="494.5" y="264.7" width="36" height="75.3" fill="#2563eb"/><rect x="494.5" y="202.3" width="36" height="62.4" fill="#f59e0b"/><rect x="494.5" y="173.2" width="36" height="29.1" fill="#10b981"/><text x="512.5" y="360.0" font-family="system-ui, -apple-system, 'Segoe UI', Roboto, 'Helvetica Neue', Arial, sans-serif" font-size="11" fill="#6b7280" text-anchor="middle">2024</text><rect x="563.5" y="281.5" width="36" height="58.5" fill="#2563eb"/><rect x="563.5" y="206.8" width="36" height="74.7" fill="#f59e0b"/><rect x="563.5" y="156.8" width="36" height="50.0" fill="#10b981"/><text x="581.5" y="360.0" font-family="system-ui, -apple-system, 'Segoe UI', Roboto, 'Helvetica Neue', Arial, sans-serif" font-size="11" fill="#6b7280" text-anchor="middle">2025</text></svg>