<svg xmlns="http://www.w3.org/2000/svg" viewBox="0 0 960 420" width="960" height="420" role="img" aria-label="Skyline of a harbour town at dusk"><defs><linearGradient id="sky" x1="0" y1="0" x2="0" y2="1"><stop offset="0" stop-color="#1e3a8a"/><stop offset="0.7" stop-color="#f59e0b"/><stop offset="1" stop-color="#fde68a"/></linearGradient></defs><rect width="960" height="420" fill="url(#sky)"/><circle cx="700" cy="250" r="46" fill="#fff7d6"/><rect x="0" y="173" width="34" height="247" fill="#1f2937" fill-opacity="0.9"/><rect x="7" y="207" width="6" height="9" fill="#fde68a"/><rect x="20" y="207" width="6" height="9" fill="#fde68a"/><rect x="7" y="229" width="6" height="9" fill="#fde68a"/><rect x="20" y="229" width="6" height="9" fill="#fde68a"/><rect x="7" y="251" width="6" height="9" fill="#fde68a"/><rect x="20" y="251" width="6" height="9" fill="#fde68a"/><rect x="7" y="273" width="6" height="9" fill="#fde68a"/><rect x="20" y="273" width="6" height="9" fill="#fde68a"/><rect x="7" y="317" width="6" height="9" fill="#fde68a"/><rect x="20" y="317" width="6" height="9" fill="#fde68a"/><rect x="7" y="339" width="6" height="9" fill="#fde68a"/><rect x="20" y="339" width="6" height="9" fill="#fde68a"/><rect x="40" y="262" width="34" height="158" fill="#1f2937" fill-opacity="0.9"/><rect x="47" y="296" width="6" height="9" fill="#fde68a"/><rect x="60" y="296" width="6" height="9" fill="#fde68a"/><rect x="47" y="318" width="6" height="9" fill="#fde68a"/><rect x="60" y="318" width="6" height="9" fill="#fde68a"/><rect x="80" y="136" width="34" height="284" fill="#1f2937" fill-opacity="0.9"/><rect x="87" y="148" width="6" height="9" fill="#fde68a"/><rect x="100" y="148" width="6" height="9" fill="#fde68a"/><rect x="87" y="170" width="6" height="9" fill="#fde68a"/><rect x="100" y="170" width="6" height="9" fill="#fde68a"/><rect x="87" y="192" width="6" height="9" fill="#fde68a"/><rect x="100" y="192" width="6" height="9" fill="#fde68a"/><rect x="87" y="214" width="6" height="9" fill="#fde68a"/><rect x="100" y="214" width="6" height="9" fill="#fde68a"/><rect x="87" y="236" width="6" height="9" fill="#fde68a"/><rect x="100" y="236" width="6" height="9" fill="#fde68a"/><rect x="87" y="280" width="6" height="9" fill="#fde68a"/><rect x="100" y="280" width="6" height="9" fill="#fde68a"/><rect x="87" y="302" width="6" height="9" fill="#fde68a"/><rect x="100" y="302" width="6" height="9" fill="#fde68a"/><rect x="87" y="324" width="6" height="9" fill="#fde68a"/><rect x="100" y="324" width="6" height="9" fill="#fde68a"/><rect x="120" y="176" width="34" height="244" fill="#1f2937" fill-opacity="0.9"/><rect x="127" y="188" width="6" height="9" fill="#fde68a"/><rect x="140" y="188" width="6" height="9" fill="#fde68a"/><rect x="127" y="210" width="6" height="9" fill="#fde68a"/><rect x="140" y="210" width="6" height="9" fill="#fde68a"/><rect x="127" y="232" width="6" height="9" fill="#fde68a"/><rect x="140" y="232" width="6" height="9" fill="#fde68a"/><rect x="127" y="254" width="6" height="9" fill="#fde68a"/><rect x="140" y="254" width="6" height="9" fill="#fde68a"/><rect x="127" y="276" width="6" height="9" fill="#fde68a"/><rect x="140" y="276" width="6" height="9" fill="#fde68a"/><rect x="127" y="298" width="6" height="9" fill="#fde68a"/><rect x="140" y="298" width="6" height="9" fill="#fde68a"/><rect x="127" y="320" width="6" height="9" fill="#fde68a"/><rect x="140" y="320" width="6" height="9" fill="#fde68a"/><rect x="160" y="239" width="34" height="181" fill="#1f2937" fill-opacity="0.9"/><rect x="167" y="295" width="6" height="9" fill="#fde68a"/><rect x="180" y="295" width="6" height="9" fill="#fde68a"/><rect x="167" y="317" width="6" height="9" fill="#fde68a"/><rect x="180" y="317" width="6" height="9" fill="#fde68a"/><rect x="167" y="339" width="6" height="9" fill="#fde68a"/><rect x="180" y="339" width="6" height="9" fill="#fde68a"/><rect x="200" y="204" width="34" height="216" fill="#1f2937" fill-opacity="0.9"/><rect x="207" y="238" width="6" height="9" fill="#fde68a"/><rect x="220" y="238" width="6" height="9" fill="#fde68a"/><rect x="207" y="260" width="6" height="9" fill="#fde68a"/><rect x="220" y="260" width="6" height="9" fill="#fde68a"/><rect x="207" y="282" width="6" height="9" fill="#fde68a"/><rect x="220" y="282" width="6" height="9" fill="#fde68a"/><rect x="207" y="304" width="6" height="9" fill="#fde68a"/><rect x="220" y="304" width="6" height="9" fill="#fde68a"/><rect x="240" y="266" width="34" height="154" fill="#1f2937" fill-opacity="0.9"/><rect x="247" y="278" width="6" height="9" fill="#fde68a"/><rect x="260" y="278" width="6" height="9" fill="#fde68a"/><rect x="280" y="216" width="34" height="204" fill="#1f2937" fill-opacity="0.9"/><rect x="287" y="228" width="6" height="9" fill="#fde68a"/><rect x="300" y="228" width="6" height="9" fill="#fde68a"/><rect x="287" y="250" width="6" height="9" fill="#fde68a"/><rect x="300" y="250" width="6" height="9" fill="#fde68a"/><rect x="287" y="294" width="6" height="9" fill="#fde68a"/><rect x="300" y="294" width="6" height="9" fill="#fde68a"/><rect x="320" y="245" width="34" height="175" fill="#1f2937" fill-opacity="0.9"/><rect x="327" y="257" width="6" height="9" fill="#fde68a"/><rect x="340" y="257" width="6" height="9" fill="#fde68a"/><rect x="327" y="279" width="6" height="9" fill="#fde68a"/><rect x="340" y="279" width="6" height="9" fill="#fde68a"/><rect x="327" y="301" width="6" height="9" fill="#fde68a"/><rect x="340" y="301" width="6" height="9" fill="#fde68a"/><rect x="327" y="323" width="6" height="9" fill="#fde68a"/><rect x="340" y="323" width="6" height="9" fill="#fde68a"/><rect x="360" y="153" width="34" height="267" fill="#1f2937" fill-opacity="0.9"/><rect x="367" y="165" width="6" height="9" fill="#fde68a"/><rect x="380" y="165" width="6" height="9" fill="#fde68a"/><rect x="367" y="209" width="6" height="9" fill="#fde68a"/><rect x="380" y="209" width="6" height="9" fill="#fde68a"/><rect x="367" y="253" width="6" height="9" fill="#fde68a"/><rect x="380" y="253" width="6" height="9" fill="#fde68a"/><rect x="367" y="297" width="6" height="9" fill="#fde68a"/><rect x="380" y="297" width="6" height="9" fill="#fde68a"/><rect x="367" y="319" width="6" height="9" fill="#fde68a"/><rect x="380" y="319" width="6" height="9" fill="#fde68a"/><rect x="400" y="176" width="34" height="244" fill="#1f2937" fill-opacity="0.9"/><rect x="407" y="210" width="6" height="9" fill="#fde68a"/><rect x="420" y="210" width="6" height="9" fill="#fde68a"/><rect x="407" y="232" width="6" height="9" fill="#fde68a"/><rect x="420" y="232" width="6" height="9" fill="#fde68a"/><rect x="407" y="254" width="6" height="9" fill="#fde68a"/><rect x="420" y="254" width="6" height="9" fill="#fde68a"/><rect x="407" y="276" width="6" height="9" fill="#fde68a"/><rect x="420" y="276" width="6" height="9" fill="#fde68a"/><rect x="440" y="269" width="34" height="151" fill="#1f2937" fill-opacity="0.9"/><rect x="447" y="281" width="6" height="9" fill="#fde68a"/><rect x="460" y="281" width="6" height="9" fill="#fde68a"/><rect x="447" y="303" width="6" height="9" fill="#fde68a"/><rect x="460" y="303" width="6" height="9" fill="#fde68a"/><rect x="447" y="325" width="6" height="9" fill="#fde68a"/><rect x="460" y="325" width="6" height="9" fill="#fde68a"/><rect x="480" y="153" width="34" height="267" fill="#1f2937" fill-opacity="0.9"/><rect x="487" y="165" width="6" height="9" fill="#fde68a"/><rect x="500" y="165" width="6" height="9" fill="#fde68a"/><rect x="487" y="187" width="6" height="9" fill="#fde68a"/><rect x="500" y="187" width="6" height="9" fill="#fde68a"/><rect x="487" y="209" width="6" height="9" fill="#fde68a"/><rect x="500" y="209" width="6" height="9" fill="#fde68a"/><rect x="487" y="231" width="6" height="9" fill="#fde68a"/><rect x="500" y="231" width="6" height="9" fill="#fde68a"/><rect x="487" y="253" width="6" height="9" fill="#fde68a"/><rect x="500" y="253" width="6" height="9" fill="#fde68a"/><rect x="487" y="275" width="6" height="9" fill="#fde68a"/><rect x="500" y="275" width="6" height="9" fill="#fde68a"/><rect x="487" y="319" width="6" height="9" fill="#fde68a"/><rect x="500" y="319" width="6" height="9" fill="#fde68a"/><rect x="520" y="240" width="34" height="180" fill="#1f2937" fill-opacity="0.9"/><rect x="527" y="252" width="6" height="9" fill="#fde68a"/><rect x="540" y="252" width="6" height="9" fill="#fde68a"/><rect x="527" y="274" width="6" height="9" fill="#fde68a"/><rect x="540" y="274" width="6" height="9" fill="#fde68a"/><rect x="527" y="296" width="6" height="9" fill="#fde68a"/><rect x="540" y="296" width="6" height="9" fill="#fde68a"/><rect x="527" y="318" width="6" height="9" fill="#fde68a"/><rect x="540" y="318" width="6" height="9" fill="#fde68a"/><rect x="560" y="162" width="34" height="258" fill="#1f2937" fill-opacity="0.9"/><rect x="567" y="196" width="6" height="9" fill="#fde68a"/><rect x="580" y="196" width="6" height="9" fill="#fde68a"/><rect x="567" y="240" width="6" height="9" fill="#fde68a"/><rect x="580" y="240" width="6" height="9" fill="#fde68a"/><rect x="567" y="262" width="6" height="9" fill="#fde68a"/><rect x="580" y="262" width="6" height="9" fill="#fde68a"/><rect x="567" y="284" width="6" height="9" fill="#fde68a"/><rect x="580" y="284" width="6" height="9" fill="#fde68a"/><rect x="567" y="328" width="6" height="9" fill="#fde68a"/><rect x="580" y="328" width="6" height="9" fill="#fde68a"/><rect x="600" y="156" width="34" height="264" fill="#1f2937" fill-opacity="0.9"/><rect x="607" y="168" width="6" height="9" fill="#fde68a"/><rect x="620" y="168" width="6" height="9" fill="#fde68a"/><rect x="607" y="234" width="6" height="9" fill="#fde68a"/><rect x="620" y="234" width="6" height="9" fill="#fde68a"/><rect x="607" y="256" width="6" height="9" fill="#fde68a"/><rect x="620" y="256" width="6" height="9" fill="#fde68a"/><rect x="607" y="278" width="6" height="9" fill="#fde68a"/><rect x="620" y="278" width="6" height="9" fill="#fde68a"/><rect x="640" y="219" width="34" height="201" fill="#1f2937" fill-opacity="0.9"/><rect x="647" y="231" width="6" height="9" fill="#fde68a"/><rect x="660" y="231" width="6" height="9" fill="#fde68a"/><rect x="647" y="275" width="6" height="9" fill="#fde68a"/><rect x="660" y="275" width="6" height="9" fill="#fde68a"/><rect x="647" y="297" width="6" height="9" fill="#fde68a"/><rect x="660" y="297" width="6" height="9" fill="#fde68a"/><rect x="680" y="143" width="34" height="277" fill="#1f2937" fill-opacity="0.9"/><rect x="687" y="155" width="6" height="9" fill="#fde68a"/><rect x="700" y="155" width="6" height="9" fill="#fde68a"/><rect x="687" y="177" width="6" height="9" fill="#fde68a"/><rect x="700" y="177" width="6" height="9" fill="#fde68a"/><rect x="687" y="199" width="6" height="9" fill="#fde68a"/><rect x="700" y="199" width="6" height="9" fill="#fde68a"/><rect x="687" y="265" width="6" height="9" fill="#fde68a"/><rect x="700" y="265" width="6" height="9" fill="#fde68a"/><rect x="687" y="287" width="6" height="9" fill="#fde68a"/><rect x="700" y="287" width="6" height="9" fill="#fde68a"/><rect x="687" y="309" width="6" height="9" fill="#fde68a"/><rect x="700" y="309" width="6" height="9" fill="#fde68a"/><rect x="720" y="247" width="34" height="173" fill="#1f2937" fill-opacity="0.9"/><rect x="727" y="259" width="6" height="9" fill="#fde68a"/><rect x="740" y="259" width="6" height="9" fill="#fde68a"/><rect x="727" y="281" width="6" height="9" fill="#fde68a"/><rect x="740" y="281" width="6" height="9" fill="#fde68a"/><rect x="727" y="325" width="6" height="9" fill="#fde68a"/><rect x="740" y="325" width="6" height="9" fill="#fde68a"/><rect x="760" y="249" width="34" height="171" fill="#1f2937" fill-opacity="0.9"/><rect x="767" y="261" width="6" height="9" fill="#fde68a"/><rect x="780" y="261" width="6" height="9" fill="#fde68a"/><rect x="767" y="283" width="6" height="9" fill="#fde68a"/><rect x="780" y="283" width="6" height="9" fill="#fde68a"/><rect x="767" y="327" width="6" height="9" fill="#fde68a"/><rect x="780" y="327" width="6" height="9" fill="#fde68a"/><rect x="800" y="165" width="34" height="255" fill="#1f2937" fill-opacity="0.9"/><rect x="807" y="177" width="6" height="9" fill="#fde68a"/><rect x="820" y="177" width="6" height="9" fill="#fde68a"/><rect x="807" y="199" width="6" height="9" fill="#fde68a"/><rect x="820" y="199" width="6" height="9" fill="#fde68a"/><rect x="807" y="243" width="6" height="9" fill="#fde68a"/><rect x="820" y="243" width="6" height="9" fill="#fde68a"/><rect x="807" y="287" width="6" height="9" fill="#fde68a"/><rect x="820" y="287" width="6" height="9" fill="#fde68a"/><rect x="840" y="253" width="34" height="167" fill="#1f2937" fill-opacity="0.9"/><rect x="847" y="265" width="6" height="9" fill="#fde68a"/><rect x="860" y="265" width="6" height="9" fill="#fde68a"/><rect x="847" y="309" width="6" height="9" fill="#fde68a"/><rect x="860" y="309" width="6" height="9" fill="#fde68a"/><rect x="847" y="331" width="6" height="9" fill="#fde68a"/><rect x="860" y="331" width="6" height="9" fill="#fde68a"/><rect x="880" y="153" width="34" height="267" fill="#1f2937" fill-opacity="0.9"/><rect x="887" y="165" width="6" height="9" fill="#fde68a"/><rect x="900" y="165" width="6" height="9" fill="#fde68a"/><rect x="887" y="253" width="6" height="9" fill="#fde68a"/><rect x="900" y="253" width="6" height="9" fill="#fde68a"/><rect x="887" y="275" width="6" height="9" fill="#fde68a"/><rect x="900" y="275" width="6" height="9" fill="#fde68a"/><rect x="887" y="297" width="6" height="9" fill="#fde68a"/><rect x="900" y="297" width="6" height="9" fill="#fde68a"/><rect x="887" y="319" width="6" height="9" fill="#fde68a"/><rect x="900" y="319" width="6" height="9" fill="#fde68a"/><rect x="920" y="126" width="34" height="294" fill="#1f2937" fill-opacity="0.9"/><rect x="927" y="204" width="6" height="9" fill="#fde68a"/><rect x="940" y="204" width="6" height="9" fill="#fde68a"/><rect x="927" y="292" width="6" height="9" fill="#fde68a"/><rect x="940" y="292" width="6" height="9" fill="#fde68a"/><rect x="927" y="314" width="6" height="9" fill="#fde68a"/><rect x="940" y="314" width="6" height="9" fill="#fde68a"/><rect x="927" y="336" width="6" height="9" fill="#fde68a"/><rect x="940" y="336" width="6" height="9" fill="#fde68a"/><rect y="340" width="960" height="80" fill="#0f172a"/><path d="M0 366q40-10 80 0t80 0 80 0 80 0 80 0 80 0 80 0 80 0 80 0 80 0 80 0 80 0" stroke="#38bdf8" stroke-opacity="0.5" fill="none" stroke-width="3"/><path d="M0 392q40-10 80 0t80 0 80 0 80 0 80 0 80 0 80 0 80 0 80 0 80 0 80 0 80 0" stroke="#38bdf8" stroke-opacity="0.3" fill="none" stroke-width="3"/></svg>